/* XPM */
static char *arrow_down[] = {
/* width height num_colors chars_per_pixel */
"   9      5        3            1",
/* colors */
". c #FF0000",
"# c #FF6666",
"  c None",
/* pixels */
".........",
" ....... ",
"  .....  ",
"   ...   ",
"    .    ",
};
