/* XPM */
static char *arrow_left[] = {
/* width height num_colors chars_per_pixel */
"   5      9        3            1",
/* colors */
". c #FF0000",
"# c #FF6666",
"  c None",
/* pixels */
"    .",
"   ..",
"  ...",
" ....",
".....",
" ....",
"  ...",
"   ..",
"    .",
};
